<svg xmlns="http://www.w3.org/2000/svg" version="1.1" x="0" y="0" xml:space="preserve" id="svg931" width="500" height="500"><style type="text/css" id="style912"/><g id="g838" transform="translate(-41.745 16.81)"><g id="layer2" display="inline"><path id="path839" d="M438.7 165.8l-23.2 4.9 65.7 42.7 19.3 27.9 30.3 50.6-.8.8-9.8-8.1-7.3 2.9-10.6 15.3 12.5 83.3-14.1-14.4-147.47 61.923-59.952-37.557L200.2 308.4l-92.6 18L80.5 311l-.1-7-27.8-20.8 2.2-14.4 99.9-53.1 16.6-48.9 61.7-59.3-1.3-60.3L270 78.6l9.3-45.1 47.9 74.7 127 62.6m-184.3-60.1l30.2 26.1-18.4-89.1zM235.6 56l2.3 49.2 25 .4m-43.4 56.2l66.8.1-23.3-50.6-24.3-.3zm180.7 3.6l-74.1-53.2-10.1 37.1m-83.2-36.2l-54.7 54.2 35.5-5.8zm57.4 47.2l20.7-9.7-40.3-33.3zm5.5 2.3l104.3 6.3-85-15.8m-97.6 12l8.6 26.4 59.8-26.4m-57.7 29.7l49.9 18.6 70.8-43.8-57.1-3.5m-112.8 4.3l43.4 22.1s-7.3-22.9-8.9-27.6l-34.5 5.5M284 214.8v.8l59.9 37.4 60.2-80-47.8-2.8-72.3 44.6M161.6 213l36.7-12.9-8.1-6.4 8.6-8.1-24.1-12.1m227.6 88l73.2-46.4-65.5-41.9-30.4 40.4 22.7 47.9m-241.3-44l47.6 41.6 14.2-63m-10.4 66.2l69.3-5.3-3.8-40-51.6-18.8-13.9 64.1m195.4 2.3l88 28-16.3-73.9-71.7 45.9M142 286.3l65.8-22.4-48.1-42.5m122.8-2l4.9 42-9.6 40 61.8-46.1-57.1-35.9m92.2 99.9l24-54.8-22.4-47.2-28.9 39.4m-190.8-35.1l-38.3 31.6L98.5 271l-13.7 26.9 54.3-11.3m-59.2 11.6L95 268.7l56.6-47.3-94.5 49.4-1.4 11.2zm200.2 5.3l89.5 17.8-26.5-63.1-63 45.3m-134-14.8l55.2 14.4 80.9-42.2-71.3 6.3m63.3 35.2l8.9-37.7-74.9 38.6m194.1-34l-22.9 53 68.8-4.1-45.9-48.9m7 0l101.1 108.1-13.8-78.6-87.3-29.5m-298.1 53.1l86.4-16.9-56.6-15.2m-5.5.7l-50.8 11v7l22.3 12.8m98.3-13.8s62.3 55.6 90 82.2l3.2-38.6-24.8-44.5m5.8.6l21.4 40.9 67.1-23.2m12.1 1.1l51.4 39.9 64.4 1.4-43.8-45.5m-153.3 69.9l70.2-63.7-66.7 23.5-3.5 40.2m3.1 2.4l43.1 27.6 26.7-91.3-69.8 63.7m76.5-65.1l-25.68 93.093L429.3 368.9m4.1.5l-75.202 55.343L497 370.8" display="inline" fill="#fff" stroke="#fff" stroke-miterlimit="10"/></g><g id="layer1" display="inline"><path id="polygon914" d="M57.1 270.8L80.4 258 95 268.7l-15.5 29.2L55.7 282z" display="inline" fill="none" stroke="#fff" stroke-width="3" stroke-miterlimit="10"/></g></g></svg>