<svg xmlns="http://www.w3.org/2000/svg" viewBox="0 0 264.5833 264.5833" height="1000" width="1000"><path d="M0 0h264.5833v264.5833H0V0z" fill="#00253f"/><g stroke-width=".2646" fill="#cce3f4"><path d="M82.1805 122.475c13.1564 0 17.8342-11.0513 17.8342-21.1671 0-10.1158-4.6778-21.1672-17.8342-21.1672-13.1564 0-17.8343 11.0514-17.8343 21.1672 0 10.1158 4.6779 21.1672 17.8343 21.1672zm0-5.8472c-8.537 0-11.5192-8.1862-11.5192-15.32 0-6.6658 2.9821-15.3198 11.5192-15.3198 8.537 0 11.5191 8.1862 11.5191 15.3199 0 6.6659-2.982 15.3199-11.5191 15.3199zM121.4742 122.475c7.3092 0 12.2793-5.7887 12.2793-15.6122 0-9.8234-4.7363-15.6707-12.2793-15.6707-3.4499 0-5.6134 1.3448-7.1921 3.099v-2.3974h-6.0812v41.6327l6.0812-2.8067v-11.5191c1.4618 1.8126 3.6838 3.2745 7.1921 3.2745zm-.877-5.7303c-2.8652 0-4.9703-1.6372-6.3151-3.4499v-12.981c1.3448-2.1635 3.5083-3.3914 6.315-3.3914 4.5025 0 7.0753 4.1516 7.0753 9.9404 0 6.3736-2.5144 9.882-7.0752 9.882zM153.1665 122.475c4.6778 0 8.0692-1.7541 10.2327-4.327l-3.9761-4.093c-1.5203 1.988-3.7423 3.0406-6.1982 3.0406-3.8592 0-7.426-3.0991-7.543-8.0108h20.1147c.1754-1.0525.2339-2.6313.2339-3.9177 0-9.531-5.7888-13.975-12.864-13.975-8.1862 0-13.5657 5.7888-13.5657 15.6122 0 9.8235 5.2625 15.6708 13.5657 15.6708zm-7.4846-18.302c.2924-5.5549 3.6838-7.6014 7.4846-7.6014 3.216 0 6.6659 2.0465 6.7828 7.6015zM191.5246 121.7734h6.0812v-17.8342c0-9.3557-4.5024-12.7471-10.759-12.7471-3.2745 0-5.7888 1.111-7.7184 3.5668v-2.8652h-6.0812v29.8797h6.0812v-17.9512c0-5.1456 2.8067-6.8998 6.432-6.8998 3.3914 0 5.9642 1.988 5.9642 7.0168zM32.6247 142.81v40.931h11.2268c15.0276 0 19.7639-11.0514 19.7639-20.4656 0-10.1158-5.2626-20.4655-19.53-20.4655zm12.2209 35.2006h-6.1397v-29.4703h6.7829c8.3616 0 11.8115 7.3676 11.8115 14.7352 0 6.8998-3.099 14.7351-12.4547 14.7351zM83.9054 184.4426c4.6779 0 8.0693-1.7541 10.2328-4.327l-3.9762-4.093c-1.5203 1.988-3.7422 3.0405-6.198 3.0405-3.8593 0-7.4261-3.099-7.543-8.0107h20.1146c.1754-1.0526.2339-2.6313.2339-3.9177 0-9.5311-5.7888-13.975-12.864-13.975-8.1863 0-13.5658 5.7888-13.5658 15.6122 0 9.8235 5.2626 15.6707 13.5657 15.6707zm-7.4845-18.302c.2924-5.5549 3.6838-7.6014 7.4845-7.6014 3.216 0 6.666 2.0465 6.7829 7.6014zM111.797 183.741h5.6718l10.9344-29.8797h-6.0811l-6.8414 19.5884c-.3508 1.0525-.5847 1.6957-.8186 2.6313-.2339-.9355-.4678-1.5787-.8186-2.6313l-6.8998-19.5884h-6.0812zM137.3496 149.1835c2.0466 0 3.6838-1.6373 3.6838-3.6838 0-2.0466-1.6372-3.6838-3.6838-3.6838-2.0465 0-3.6838 1.6372-3.6838 3.6838 0 2.0465 1.6373 3.6838 3.6838 3.6838zm-3.0406 34.5575h6.0812v-29.8797h-6.0812zM160.7971 184.4426c5.9058 0 9.8235-2.8651 11.4023-8.42l-5.7889-1.8127c-.8186 2.8067-2.8651 4.3855-5.6134 4.3855-4.327 0-6.8413-3.6838-6.8413-9.765 0-6.0812 2.5144-9.8235 7.0752-9.8235 2.5728 0 4.3855 1.5788 5.2626 3.8592l5.7888-1.988c-1.7542-5.321-5.7888-7.7185-11.2852-7.7185-8.0108 0-13.0395 5.8473-13.0395 15.6708 0 9.8234 5.0287 15.6122 13.0395 15.6122zM191.6123 184.4426c4.6779 0 8.0693-1.7541 10.2328-4.327l-3.9761-4.093c-1.5203 1.988-3.7423 3.0405-6.1982 3.0405-3.8592 0-7.426-3.099-7.543-8.0107h20.1147c.1754-1.0526.2339-2.6313.2339-3.9177 0-9.5311-5.7888-13.975-12.864-13.975-8.1863 0-13.5658 5.7888-13.5658 15.6122 0 9.8235 5.2626 15.6707 13.5658 15.6707zm-7.4845-18.302c.2924-5.5549 3.6838-7.6014 7.4845-7.6014 3.216 0 6.666 2.0465 6.783 7.6014zM220.7318 184.4426c6.7828 0 11.2268-2.982 11.2268-8.7124 0-5.3795-3.3914-7.9523-9.8235-10.1158-3.1575-1.228-5.7888-2.222-5.7888-4.21 0-1.7543 1.6373-2.7483 4.21-2.7483 3.1576 0 5.0287 1.4033 6.0813 2.5143l4.3854-3.5083c-1.9296-2.339-5.321-4.5025-10.4666-4.5025-5.7888 0-10.4082 2.9237-10.4082 8.2447 0 4.7948 3.216 7.4846 9.531 9.5896 3.333 1.2864 6.1982 2.3389 6.1982 4.7363 0 2.3974-2.222 3.216-5.2625 3.216-3.333 0-5.6135-1.8711-6.8414-3.0406l-4.327 3.6838c2.105 2.9821 6.6075 4.8532 11.2853 4.8532z"/></g></svg>
